<svg width="40" height="40" viewBox="0 0 40 40" fill="none" xmlns="http://www.w3.org/2000/svg">
<rect width="40" height="40" rx="2" fill="#FFB62C"/>
<path fill-rule="evenodd" clip-rule="evenodd" d="M17.576 10.3784C18.8754 8.12842 22.1244 8.12842 23.4226 10.3784L31.697 24.7199C32.9953 26.9699 31.3708 29.7824 28.7731 29.7824H12.2255C9.6279 29.7824 8.00452 26.9699 9.30277 24.7199L17.5749 10.3784H17.576ZM20.4999 16.2813C20.7237 16.2813 20.9383 16.3702 21.0965 16.5284C21.2548 16.6867 21.3436 16.9013 21.3436 17.125V21.3438C21.3436 21.5676 21.2548 21.7822 21.0965 21.9404C20.9383 22.0986 20.7237 22.1875 20.4999 22.1875C20.2761 22.1875 20.0615 22.0986 19.9033 21.9404C19.745 21.7822 19.6561 21.5676 19.6561 21.3438V17.125C19.6561 16.9013 19.745 16.6867 19.9033 16.5284C20.0615 16.3702 20.2761 16.2813 20.4999 16.2813ZM20.4999 25.5625C20.7237 25.5625 20.9383 25.4736 21.0965 25.3154C21.2548 25.1572 21.3436 24.9426 21.3436 24.7188C21.3436 24.495 21.2548 24.2804 21.0965 24.1222C20.9383 23.9639 20.7237 23.875 20.4999 23.875C20.2761 23.875 20.0615 23.9639 19.9033 24.1222C19.745 24.2804 19.6561 24.495 19.6561 24.7188C19.6561 24.9426 19.745 25.1572 19.9033 25.3154C20.0615 25.4736 20.2761 25.5625 20.4999 25.5625Z" fill="white"/>
</svg>
