<svg width="40" height="40" viewBox="0 0 40 40" fill="none" xmlns="http://www.w3.org/2000/svg">
<rect width="40" height="40" rx="2" fill="#1CA345"/>
<path fill-rule="evenodd" clip-rule="evenodd" d="M9 20.9688C9 14.9106 13.9106 10 19.9688 10C26.0269 10 30.9375 14.9106 30.9375 20.9688C30.9375 27.0269 26.0269 31.9375 19.9688 31.9375C13.9106 31.9375 9 27.0269 9 20.9688ZM24.03 18.928C24.0975 18.8381 24.1463 18.7355 24.1736 18.6264C24.201 18.5174 24.2062 18.4039 24.189 18.2928C24.1719 18.1816 24.1327 18.0751 24.0737 17.9793C24.0148 17.8835 23.9373 17.8005 23.8458 17.7351C23.7543 17.6697 23.6507 17.6233 23.541 17.5985C23.4313 17.5737 23.3177 17.5712 23.207 17.5909C23.0963 17.6106 22.9907 17.6523 22.8963 17.7135C22.8019 17.7746 22.7207 17.854 22.6575 17.947L19.017 23.0432L17.19 21.2163C17.0301 21.0672 16.8185 20.9861 16.5999 20.9899C16.3813 20.9938 16.1728 21.0823 16.0182 21.2369C15.8636 21.3915 15.775 21.6001 15.7712 21.8187C15.7673 22.0373 15.8485 22.2488 15.9975 22.4087L18.5288 24.94C18.6154 25.0265 18.7198 25.0932 18.8347 25.1354C18.9497 25.1775 19.0725 25.1941 19.1945 25.184C19.3165 25.174 19.4349 25.1375 19.5414 25.0771C19.6479 25.0167 19.74 24.9338 19.8112 24.8342L24.03 18.928Z" fill="white"/>
</svg>
