<svg width="40" height="40" viewBox="0 0 40 40" fill="none" xmlns="http://www.w3.org/2000/svg">
<rect width="40" height="40" rx="2" fill="#4F46E5"/>
<path fill-rule="evenodd" clip-rule="evenodd" d="M21.0216 12.6364C22.4233 12.6364 23.8123 12.6866 25.1874 12.7837C26.0881 12.8458 26.935 13.2117 27.5736 13.8146C28.2122 14.4174 28.5998 15.217 28.6656 16.0673C28.7165 16.7033 28.7546 17.3436 28.7812 17.9862L26.8341 16.1491C26.7547 16.0687 26.659 16.0042 26.5527 15.9595C26.4464 15.9148 26.3317 15.8908 26.2153 15.8888C26.0989 15.8869 25.9833 15.9071 25.8754 15.9482C25.7675 15.9894 25.6695 16.0506 25.5872 16.1283C25.5049 16.206 25.44 16.2986 25.3964 16.4005C25.3528 16.5023 25.3314 16.6115 25.3335 16.7213C25.3355 16.8312 25.361 16.9395 25.4084 17.0399C25.4557 17.1402 25.524 17.2306 25.6092 17.3055L29.0758 20.5782C29.2383 20.7314 29.4586 20.8174 29.6883 20.8174C29.918 20.8174 30.1382 20.7314 30.3007 20.5782L33.7674 17.3055C33.9205 17.1504 34.0038 16.9452 33.9999 16.7333C33.9959 16.5213 33.9049 16.3191 33.7462 16.1692C33.5874 16.0193 33.3731 15.9334 33.1486 15.9296C32.9241 15.9259 32.7068 16.0046 32.5425 16.1491L30.518 18.0593C30.4914 17.3502 30.4486 16.6455 30.3932 15.944C30.2959 14.7037 29.73 13.5377 28.7985 12.6583C27.8669 11.7788 26.6318 11.2446 25.318 11.1528C22.4578 10.9491 19.5854 10.9491 16.7253 11.1528C15.4115 11.2446 14.1763 11.7788 13.2448 12.6583C12.3132 13.5377 11.7473 14.7037 11.6501 15.944C11.6304 16.1884 11.6119 16.4317 11.5969 16.6771C11.5881 16.7853 11.6022 16.894 11.6383 16.997C11.6744 17.1 11.7319 17.1952 11.8074 17.277C11.8829 17.3589 11.9748 17.4257 12.0779 17.4737C12.181 17.5216 12.2932 17.5498 12.4079 17.5564C12.5226 17.5631 12.6375 17.5481 12.7461 17.5124C12.8546 17.4768 12.9545 17.421 13.0401 17.3486C13.1256 17.2761 13.195 17.1882 13.2442 17.0902C13.2934 16.9922 13.3215 16.8858 13.3268 16.7775C13.3418 16.5407 13.3591 16.304 13.3776 16.0673C13.4434 15.217 13.831 14.4174 14.4696 13.8146C15.1082 13.2117 15.9552 12.8458 16.8558 12.7837C18.231 12.6855 19.6199 12.6364 21.0216 12.6364ZM12.9674 19.4218C12.8049 19.2686 12.5846 19.1825 12.355 19.1825C12.1253 19.1825 11.905 19.2686 11.7425 19.4218L8.27584 22.6945C8.19069 22.7694 8.1224 22.8597 8.07503 22.9601C8.02766 23.0605 8.00219 23.1688 8.00013 23.2787C7.99808 23.3885 8.01949 23.4976 8.06308 23.5995C8.10667 23.7014 8.17154 23.7939 8.25384 23.8716C8.33614 23.9493 8.43417 24.0106 8.54208 24.0517C8.65 24.0929 8.76559 24.1131 8.88196 24.1111C8.99832 24.1092 9.11309 24.0852 9.2194 24.0404C9.32571 23.9957 9.42139 23.9313 9.50073 23.8509L11.5253 21.9407C11.5518 22.6498 11.5946 23.3545 11.6501 24.056C11.7473 25.2962 12.3132 26.4623 13.2448 27.3417C14.1763 28.2211 15.4115 28.7554 16.7253 28.8472C19.5854 29.0509 22.4578 29.0509 25.318 28.8472C26.6318 28.7554 27.8669 28.2211 28.7985 27.3417C29.73 26.4623 30.2959 25.2962 30.3932 24.056C30.4128 23.8127 30.4302 23.5683 30.4463 23.3229C30.4568 23.1083 30.3775 22.8984 30.2254 22.7386C30.0734 22.5787 29.8609 22.4817 29.6337 22.4686C29.4066 22.4554 29.1831 22.5271 29.0115 22.6681C28.8399 22.8092 28.7339 23.0083 28.7165 23.2225C28.7014 23.4592 28.6841 23.696 28.6656 23.9327C28.5998 24.783 28.2122 25.5825 27.5736 26.1854C26.935 26.7882 26.0881 27.1541 25.1874 27.2163C22.4141 27.4137 19.6291 27.4137 16.8558 27.2163C15.9552 27.1541 15.1082 26.7882 14.4696 26.1854C13.831 25.5825 13.4434 24.783 13.3776 23.9327C13.3266 23.2938 13.2881 22.654 13.2621 22.0138L15.2092 23.8509C15.3735 23.9954 15.5908 24.0741 15.8153 24.0703C16.0398 24.0666 16.254 23.9807 16.4128 23.8308C16.5716 23.6809 16.6626 23.4787 16.6665 23.2667C16.6705 23.0547 16.5872 22.8496 16.4341 22.6945L12.9674 19.4218Z" fill="white"/>
</svg>
